# xmcd
#
# Track frame offsets: 
#        150
#        18700
#        46262
#        65235
#        81505
#        89677
#        95857
#        112135
#        118192
#        142410
#        163180
#
# Disc length: 2433 seconds
#
# Revision: 1
# Processed by: cddbd v1.5.2PL0 Copyright (c) Steve Scherf et al.
# Submitted via: ExactAudioCopy v0.95a5
#
DISCID=b4097f0b
DTITLE=S.E.N.S. - Tsukinoishi to Chikyunomizu
DYEAR=1900
DGENRE=
TTITLE0=Tsukinoishi
TTITLE1=Against the Wind
TTITLE2=Tsuki no Shinden
TTITLE3=Fatalist
TTITLE4=Tears
TTITLE5=Suna no Shiro
TTITLE6=Love in song
TTITLE7=Tsukinoishi reprise
TTITLE8=Nocturne
TTITLE9=Kawa
TTITLE10=Pale blue Story
EXTD=
EXTT0=
EXTT1=
EXTT2=
EXTT3=
EXTT4=
EXTT5=
EXTT6=
EXTT7=
EXTT8=
EXTT9=
EXTT10=
PLAYORDER=
